<svg xmlns="http://www.w3.org/2000/svg" viewBox="0 0 128 128" role="img" aria-labelledby="title">
  <title>Tether USDT</title>
  <circle cx="64" cy="64" r="64" fill="#26A17B"/>
  <path fill="#fff" d="M73.8 58.1v-9.5h21.8V34.1H32.4v14.5h21.8v9.5c-17.7.8-31 4.3-31 8.5s13.3 7.7 31 8.5v30.5h19.6V75.1c17.7-.8 31-4.3 31-8.5s-13.3-7.7-31-8.5Zm0 13.8v-.1c-.4 0-2.7.2-8.8.2-4.9 0-8.3-.1-9.5-.2v.1c-18.8-.8-32.8-4.1-32.8-8s14-7.2 32.8-8v13c1.2.1 4.8.3 9.6.3 5.8 0 8.3-.2 8.7-.3V55.9c18.8.8 32.8 4.1 32.8 8s-14 7.2-32.8 8Z"/>
</svg>
