<svg xmlns="http://www.w3.org/2000/svg" viewBox="0 0 128 128" role="img" aria-labelledby="title">
  <title>Bitcoin</title>
  <circle cx="64" cy="64" r="64" fill="#F7931A"/>
  <path fill="#fff" d="M88.4 56.2c1.3-8.6-5.3-13.2-14.3-16.3l2.9-11.6-7-1.7-2.8 11.3c-1.8-.5-3.7-.9-5.6-1.3l2.8-11.4-7-1.7-2.9 11.6c-1.5-.3-3-.7-4.4-1l-9.7-2.4-1.9 7.5s5.3 1.2 5.1 1.3c2.9.7 3.4 2.6 3.3 4.1l-3.3 13.2c.2.1.5.1.8.3l-.8-.2-4.6 18.5c-.3.9-1.2 2.3-3.2 1.8.1.1-5.2-1.3-5.2-1.3l-3.5 8 9.1 2.3 5 1.3-3 11.8 7 1.7 2.9-11.7c1.9.5 3.8 1 5.6 1.4l-2.9 11.6 7 1.7 3-11.8c12 2.3 21 .4 24.8-9.5 3.1-7.9-.2-12.5-6.5-15.5 4.6-1.1 8.1-4.1 9-10.4Zm-16.1 22.7c-2.2 8.7-16.9 4-21.7 2.8l3.9-15.7c4.8 1.2 20.1 3.6 17.8 12.9Zm2.2-22.9c-2 7.9-14.2 3.9-18.2 2.9l3.6-14.2c4 1 16.6 2.9 14.6 11.3Z"/>
</svg>
